<?xml version="1.0" encoding="UTF-8" standalone="no"?>
<svg
   xmlns:dc="http://purl.org/dc/elements/1.1/"
   xmlns:cc="http://creativecommons.org/ns#"
   xmlns:svg="http://www.w3.org/2000/svg"
   xmlns="http://www.w3.org/2000/svg"
   id="svg8"
   version="1.1"
   viewBox="0 0 175.11931 42.417141"
   height="42.417141mm"
   width="175.11931mm">
  <title
     id="title833">Fivebyfive Wordmark</title>
  <defs
     id="defs2">
    <rect
       x="13.331895"
       y="166.82362"
       width="206.05045"
       height="6.9947491"
       id="rect869" />
  </defs>
  <style>
  @keyframes cyclecolor {
   30% {
      fill: #0099a6;
   }
   32% {
      fill: #F26B5B;
   }
   50% {
      fill: #F26B5B;
   }
   52% {
      fill: #CA3368;
   }

   70% {
      fill: #CA3368;
   }
   72% {
      fill: #0099a6;
   }
}
@keyframes bouncein {
   0% {
      transform: translateX(-50%);
      opacity: 0;
   }
   2% {
      transform: translateX(1.5%);
      opacity: .5;
   }
   4% {
      transform: translateX(-1%);
      opacity: .7;
   }
   5% {
      transform: translateX(.5%);
      opacity: .9;
   }
   5.5% {
      transform: translateX(0);
      opacity: 1;
   }
   100% {
      opacity: 1;
   }
}
      #wordmark-container {
         animation: 120s ease 0s infinite alternate cyclecolor;
         fill:#0099a6;
      }
      #wordmark-container path {
         transform-origin: 50% 50%;
         animation: 23s ease 0s 1 forwards bouncein;
         opacity: 0;
      }
      #wordmark-container #letter-1 { animation-delay:.2s; }
      #wordmark-container #letter-2 { animation-delay:.4s; }
      #wordmark-container #letter-3 { animation-delay:.6s; }
      #wordmark-container #letter-4 { animation-delay:.8s; }
      #wordmark-container #letter-5 { animation-delay:1s; }
      #wordmark-container #letter-6 { animation-delay:1.2s; }
      #wordmark-container #letter-7 { animation-delay:1.4s; }
      #wordmark-container #letter-8 { animation-delay:1.6s; }
</style>
  <g
     id="layer5"
     style="display:inline"
     transform="translate(-17.440342,-164.28419)">
    <g
       aria-label="Fivebyfive"
       id="wordmark-container"
       transform="matrix(1.4713358,0,0,1.4713358,-73.897917,-73.373322)">
      <path
         d="m 62.078459,183.75 v -20.955 h 12.5476 v 4.9022 h -8.1026 l 1.143,-1.143 v 5.3848 l -1.143,-1.143 h 7.5438 v 4.9022 h -7.5438 l 1.143,-1.143 v 9.1948 z"
         id="letter-0" />
      <path
         d="m 73.704526,183.75 v -13.0048 h 5.2832 V 183.75 Z"
         id="letter-1" />
      <path
         d="m 85.237522,183.75 -7.188199,-13.0048 h 6.248399 l 2.7178,6.1468 2.7178,-6.1468 h 6.248397 L 88.793522,183.75 Z"
         id="letter-2" />
      <path
         d="m 100.81514,184.1564 q -2.159,0 -3.8862,-0.9144 -1.714501,-0.9144 -2.717801,-2.4765 -1.0033,-1.5748 -1.0033,-3.5433 0,-1.4605 0.5715,-2.7051 0.5715,-1.2573 1.5875,-2.1971 1.016,-0.9398 2.374901,-1.4605 1.3716,-0.5207 2.9718,-0.5207 2.032,0 3.556,0.8509 1.5367,0.8382 2.4003,2.3495 0.8636,1.4986 0.8636,3.4925 0,0.1651 -0.0127,0.3175 0,0.1397 -0.0381,0.635 h -8.8138 q 0,0.6223 0.2921,1.0795 0.2921,0.4445 0.8382,0.6858 0.5588,0.2413 1.3208,0.2413 0.7112,0 1.2192,-0.254 0.5207,-0.254 1.2065,-0.9144 l 3.7846,1.8796 q -0.9144,1.6129 -2.6543,2.54 -1.7272,0.9144 -3.8608,0.9144 z m -1.9939,-8.6614 h 3.556 q -0.0762,-0.5207 -0.3048,-0.8509 -0.2286,-0.3429 -0.5969,-0.508 -0.3683,-0.1651 -0.9017,-0.1651 -0.5588,0 -0.9525,0.1778 -0.381,0.1778 -0.5842,0.5207 -0.2032,0.3302 -0.2159,0.8255 z"
         id="letter-3" />
      <path
         d="m 116.58292,184.1564 q -1.0922,0 -2.1209,-0.3683 -1.016,-0.3683 -1.905,-1.0541 v 1.016 h -5.2832 v -21.844 h 5.2832 v 9.6774 q 0.762,-0.5969 1.7653,-0.9144 1.0033,-0.3302 2.1209,-0.3302 1.8923,0 3.3528,0.9144 1.4732,0.9017 2.3114,2.4638 0.8382,1.5621 0.8382,3.5306 0,2.032 -0.8763,3.5941 -0.8636,1.5621 -2.3114,2.4384 -1.4478,0.8763 -3.175,0.8763 z m -1.651,-4.4704 q 0.7239,0 1.27,-0.3048 0.5461,-0.3175 0.8509,-0.8636 0.3048,-0.5461 0.3048,-1.2319 0,-0.7112 -0.3302,-1.27 -0.3175,-0.5588 -0.8636,-0.8763 -0.5461,-0.3302 -1.2446,-0.3302 -0.6985,0 -1.2573,0.3302 -0.5588,0.3175 -0.889,0.8763 -0.3175,0.5461 -0.3175,1.2573 0,0.6858 0.3175,1.2319 0.3175,0.5461 0.8763,0.8636 0.5588,0.3175 1.2827,0.3175 z"
         id="letter-4" />
      <path
         d="m 121.02509,190.354 4.8768,-9.1186 -6.1722,-10.4902 h 6.0706 l 3.2004,5.4864 2.6416,-5.4864 h 6.0706 l -10.6172,19.6088 z"
         id="letter-5" />
      <path
         d="m 137.72064,183.75 v -8.9916 h -2.032 v -4.0132 h 2.032 v -2.2606 q 0,-2.0066 0.6477,-3.5814 0.6604,-1.5748 1.905,-2.4765 1.2573,-0.9017 3.0353,-0.9017 1.524,0 2.8194,0.3429 1.3081,0.3429 2.3241,0.8509 1.016,0.508 1.6637,1.016 l -1.7526,3.7592 q -0.6477,-0.4699 -1.5875,-0.9017 -0.9398,-0.4445 -1.8415,-0.4445 -1.143,0 -1.5367,0.6096 -0.3937,0.6096 -0.3937,1.905 v 2.0828 h 9.5504 V 183.75 h -5.2832 v -8.9916 h -4.2672 v 8.9916 z"
         id="letter-6" />
      <path
         d="m 158.80316,183.75 -7.1882,-13.0048 h 6.2484 l 2.7178,6.1468 2.7178,-6.1468 h 6.2484 l -7.1882,13.0048 z"
         id="letter-7" />
      <path
         d="m 174.38079,184.1564 q -2.159,0 -3.8862,-0.9144 -1.7145,-0.9144 -2.7178,-2.4765 -1.0033,-1.5748 -1.0033,-3.5433 0,-1.4605 0.5715,-2.7051 0.5715,-1.2573 1.5875,-2.1971 1.016,-0.9398 2.3749,-1.4605 1.3716,-0.5207 2.9718,-0.5207 2.032,0 3.556,0.8509 1.5367,0.8382 2.4003,2.3495 0.8636,1.4986 0.8636,3.4925 0,0.1651 -0.0127,0.3175 0,0.1397 -0.0381,0.635 h -8.8138 q 0,0.6223 0.2921,1.0795 0.2921,0.4445 0.8382,0.6858 0.5588,0.2413 1.3208,0.2413 0.7112,0 1.2192,-0.254 0.5207,-0.254 1.2065,-0.9144 l 3.7846,1.8796 q -0.9144,1.6129 -2.6543,2.54 -1.7272,0.9144 -3.8608,0.9144 z m -1.9939,-8.6614 h 3.556 q -0.0762,-0.5207 -0.3048,-0.8509 -0.2286,-0.3429 -0.5969,-0.508 -0.3683,-0.1651 -0.9017,-0.1651 -0.5588,0 -0.9525,0.1778 -0.381,0.1778 -0.5842,0.5207 -0.2032,0.3302 -0.2159,0.8255 z"
         id="letter-8" />
    </g>
  </g>
</svg>
